# xmcd
#
# Track frame offsets:
#	150
#	22165
#	39489
#	56768
#	75882
#	93952
#	113785
#	146823
#	163342
#
# Disc length: 2425 seconds
#
# Revision: 0
# Processed by: cddbd v1.5.2PL0 Copyright (c) Steve Scherf et al.
# Submitted via: EZCDAudioConverter 1.5.4.1
#
DISCID=73097709
DTITLE=Lomoken Hoboken - Alicate
DYEAR=2015
DGENRE=Blues Rock Southern Rock
TTITLE0=Dirty Lie
TTITLE1=Ramblin'g Blues
TTITLE2=Old Crow
TTITLE3=Honky Tonk Night Time Man
TTITLE4=Parchman Farm
TTITLE5=Get Into The Funky
TTITLE6=Slow Blues Little Lomo
TTITLE7=City Of Smoke
TTITLE8=Special Kountry (Bonus Track)
EXTD=
EXTT0=
EXTT1=
EXTT2=
EXTT3=
EXTT4=
EXTT5=
EXTT6=
EXTT7=
EXTT8=
PLAYORDER=
